<svg width="20" height="21" viewBox="0 0 20 21" fill="none" xmlns="http://www.w3.org/2000/svg">
<path d="M18.04 5.32L12.28 1.29C10.71 0.189999 8.29999 0.249999 6.78999 1.42L1.77999 5.33C0.77999 6.11 -0.0100098 7.71 -0.0100098 8.97V15.87C-0.0100098 18.42 2.05999 20.5 4.60999 20.5H15.39C17.94 20.5 20.01 18.43 20.01 15.88V9.1C20.01 7.75 19.14 6.09 18.04 5.32ZM10.75 16.5C10.75 16.91 10.41 17.25 9.99999 17.25C9.58999 17.25 9.24999 16.91 9.24999 16.5V13.5C9.24999 13.09 9.58999 12.75 9.99999 12.75C10.41 12.75 10.75 13.09 10.75 13.5V16.5Z" fill="url(#paint0_linear_540_678)"/>
<defs>
<linearGradient id="paint0_linear_540_678" x1="0.0699021" y1="10.394" x2="17.0561" y2="17.5227" gradientUnits="userSpaceOnUse">
<stop stop-color="#144EF0" stop-opacity="0.84"/>
<stop offset="0.568105" stop-color="#5028FB"/>
<stop offset="1" stop-color="#641BFE"/>
</linearGradient>
</defs>
</svg>
