<svg width="24" height="24" viewBox="0 0 24 24" fill="none" xmlns="http://www.w3.org/2000/svg">
<path d="M12 12C14.7614 12 17 9.76142 17 7C17 4.23858 14.7614 2 12 2C9.23858 2 7 4.23858 7 7C7 9.76142 9.23858 12 12 12Z" fill="url(#paint0_linear_568_1244)"/>
<path d="M12 14.5C6.99003 14.5 2.91003 17.86 2.91003 22C2.91003 22.28 3.13003 22.5 3.41003 22.5H20.59C20.87 22.5 21.09 22.28 21.09 22C21.09 17.86 17.01 14.5 12 14.5Z" fill="url(#paint1_linear_568_1244)"/>
<defs>
<linearGradient id="paint0_linear_568_1244" x1="7.03992" y1="6.94641" x2="15.5273" y2="10.5044" gradientUnits="userSpaceOnUse">
<stop stop-color="#144EF0" stop-opacity="0.84"/>
<stop offset="0.568105" stop-color="#5028FB"/>
<stop offset="1" stop-color="#641BFE"/>
</linearGradient>
<linearGradient id="paint1_linear_568_1244" x1="2.9826" y1="18.4571" x2="12.4931" y2="27.5174" gradientUnits="userSpaceOnUse">
<stop stop-color="#144EF0" stop-opacity="0.84"/>
<stop offset="0.568105" stop-color="#5028FB"/>
<stop offset="1" stop-color="#641BFE"/>
</linearGradient>
</defs>
</svg>
